<svg width="366" height="53" viewBox="0 0 366 53" fill="none" xmlns="http://www.w3.org/2000/svg">
<path d="M0.492188 7.46666C0.492188 3.61908 3.52467 0.5 7.26543 0.5H165.082C168.823 0.5 171.855 3.61909 171.855 7.46666V45.7834C171.855 49.631 168.823 52.75 165.082 52.75H7.26542C3.52467 52.75 0.492188 49.631 0.492188 45.7834V7.46666Z" fill="white"/>
<path fill-rule="evenodd" clip-rule="evenodd" d="M0.492188 45.7834V7.46666C0.492188 3.61909 3.52467 0.5 7.26542 0.5H165.082C168.823 0.5 171.855 3.61908 171.855 7.46666V45.7834C171.855 49.631 168.823 52.75 165.082 52.75H7.26542C3.52467 52.75 0.492188 49.631 0.492188 45.7834ZM1.50817 45.7834V7.46666C1.50817 4.19622 4.08578 1.545 7.26542 1.545H165.082C168.262 1.545 170.839 4.19622 170.839 7.46666V45.7834C170.839 49.0537 168.262 51.705 165.082 51.705H7.26542C4.08578 51.705 1.50817 49.0537 1.50817 45.7834Z" fill="black" fill-opacity="0.101961"/>
<path d="M87.3205 28.8856C84.271 28.8856 81.7514 31.3351 81.7514 34.6937C81.7514 38.0249 84.2446 40.5018 87.3208 40.5018C90.3968 40.5018 92.8897 38.0524 92.8897 34.6937C92.8897 31.3351 90.3968 28.8856 87.3205 28.8856ZM87.3205 38.1907C85.6494 38.1907 84.1917 36.7313 84.1917 34.6678C84.1917 32.5757 85.6505 31.1449 87.3205 31.1449C88.9905 31.1449 90.4493 32.5757 90.4493 34.6678C90.4493 36.7313 88.9905 38.1907 87.3205 38.1907ZM75.2011 28.8856C72.1248 28.8856 69.6317 31.3351 69.6317 34.6937C69.6317 38.0249 72.1248 40.5018 75.2011 40.5018C78.277 40.5018 80.7702 38.0524 80.7702 34.6937C80.7702 31.3351 78.277 28.8856 75.2008 28.8856H75.2011ZM75.2011 38.1907C73.5297 38.1907 72.0723 36.7313 72.0723 34.6678C72.0723 32.5757 73.5312 31.1449 75.2011 31.1449C76.8722 31.1449 78.33 32.5757 78.33 34.6678C78.33 36.7313 76.8972 38.1907 75.2011 38.1907ZM60.8008 30.675V33.1246H66.4224C66.2628 34.5008 65.8132 35.5193 65.1497 36.208C64.3279 37.061 63.0549 37.9975 60.8008 37.9975C57.3261 37.9975 54.6486 35.0798 54.6486 31.4735C54.6486 27.8671 57.3275 24.8944 60.8008 24.8944C62.683 24.8944 64.0364 25.6653 65.044 26.6566L66.714 24.9217C65.308 23.5184 63.4258 22.4451 60.8008 22.4451C56.0531 22.4451 52.075 26.4909 52.075 31.4186C52.075 36.3466 56.0531 40.3925 60.8008 40.3925C63.3729 40.3925 65.283 39.512 66.8208 37.8594C68.3854 36.2355 68.8628 33.9502 68.8628 32.1061C68.8628 31.5283 68.8103 31.0051 68.7298 30.5645L60.8008 30.675ZM119.728 32.5742C119.277 31.2803 117.846 28.8856 114.98 28.8856C112.115 28.8856 109.755 31.2258 109.755 34.6937C109.755 37.9414 112.115 40.5018 115.246 40.5018C117.791 40.5018 119.25 38.8779 119.86 37.9414L117.978 36.6203C117.34 37.5842 116.492 38.2166 115.246 38.2166C113.999 38.2166 113.125 37.6388 112.566 36.4546L119.965 33.2343L119.728 32.5742ZM112.196 34.5295C112.143 32.2991 113.867 31.1435 115.086 31.1435C116.067 31.1435 116.863 31.639 117.154 32.3826L112.196 34.5295ZM106.176 40.117H108.616V23.1049H106.176V40.117ZM102.198 30.1795H102.12C101.562 29.4909 100.529 28.8856 99.2015 28.8856C96.4173 28.8856 93.8971 31.4461 93.8971 34.6937C93.8971 37.9414 96.4435 40.4748 99.2015 40.4748C100.527 40.4748 101.562 39.8692 102.12 39.153H102.198V39.979C102.198 42.2094 101.058 43.3921 99.2278 43.3921C97.7425 43.3921 96.8144 42.2639 96.4435 41.3274L94.3223 42.2639C94.932 43.8057 96.5503 45.7048 99.2278 45.7048C102.092 45.7048 104.506 43.9427 104.506 39.6763V29.2431H102.198V30.1795ZM99.4141 38.1907C97.7425 38.1907 96.3377 36.7313 96.3377 34.6953C96.3377 32.6592 97.7443 31.1721 99.4141 31.1721C101.059 31.1721 102.385 32.6592 102.385 34.6953C102.383 36.7038 101.058 38.1907 99.4141 38.1907ZM131.105 23.1052H125.27V40.117H127.711V33.675H131.105C133.81 33.675 136.461 31.6375 136.461 28.3901C136.461 25.1424 133.81 23.1049 131.105 23.1049V23.1052ZM131.183 31.3093H127.736V25.4722H131.183C132.987 25.4722 134.047 27.0413 134.047 28.3898C134.023 29.7112 132.988 31.3093 131.183 31.3093ZM146.195 28.8582C144.444 28.8582 142.614 29.6566 141.872 31.4735L144.021 32.4099C144.499 31.4735 145.347 31.1708 146.249 31.1708C147.522 31.1708 148.794 31.969 148.821 33.3724V33.5382C148.37 33.2629 147.443 32.8769 146.275 32.8769C143.942 32.8769 141.58 34.2257 141.58 36.7038C141.58 38.9888 143.491 40.4473 145.612 40.4473C147.257 40.4473 148.157 39.6763 148.714 38.7685H148.793V40.0898H151.153V33.5652C151.127 30.5653 148.98 28.8579 146.195 28.8579V28.8582ZM145.903 38.1632C145.107 38.1632 143.993 37.7497 143.993 36.7324C143.993 35.4111 145.371 34.9156 146.565 34.9156C147.626 34.9156 148.13 35.1633 148.793 35.4933C148.608 37.0625 147.308 38.1632 145.903 38.1632ZM159.666 29.2445L156.882 36.5941H156.802L153.913 29.2442H151.288L155.636 39.5392L153.17 45.2928H155.715L162.372 29.2442H159.666V29.2445ZM137.815 40.117H140.255V23.1049H137.815V40.117Z" fill="black"/>
<path d="M35.9232 31.8776L31.0256 27.0643L35.9194 22.2275C39.4148 24.1205 42.0986 25.5669 42.6143 25.8322C44.2797 26.712 43.4333 27.8445 42.6143 28.2727C42.4371 28.3593 40.9591 29.1574 38.7664 30.3415L38.7645 30.3426C38.4116 30.5331 38.0401 30.7339 37.6526 30.9433C37.1058 31.2388 36.5272 31.5516 35.9232 31.8776Z" fill="#0F1A2A"/>
<path d="M35.0314 32.3587L30.3369 27.7449L14.6497 43.25C14.8387 43.1941 15.0393 43.1093 15.2536 42.9936C15.414 42.9073 15.8044 42.6978 16.3782 42.3898L16.4124 42.3715C19.6411 40.6383 28.5061 35.8798 35.0314 32.3587Z" fill="#0F1A2A"/>
<path d="M13.3679 43.1554C12.9076 42.8504 12.6665 42.213 12.6665 41.4079V12.8466C12.6665 11.9562 12.9859 11.4085 13.4284 11.1276L29.646 27.0662L13.3679 43.1554Z" fill="#0F1A2A"/>
<path d="M14.6292 10.95L30.3349 26.3855L35.0115 21.7633C32.1116 20.209 16.3006 11.7352 15.2533 11.1878C15.0543 11.0716 14.8424 10.9934 14.6292 10.95Z" fill="#0F1A2A"/>
<path d="M58.8585 14.8944C58.3743 15.4691 57.6841 15.814 56.8909 15.814C55.3972 15.814 54.2537 14.6018 54.2537 13.0656C54.2537 11.5295 55.3972 10.3068 56.8909 10.3068C57.6738 10.3068 58.3537 10.6621 58.8379 11.1951L59.559 10.589C58.9306 9.8366 57.9932 9.36635 56.8909 9.36635C54.8821 9.36635 53.2957 11.0279 53.2957 13.0656C53.2957 15.1138 54.8821 16.7545 56.8909 16.7545C58.0035 16.7545 58.9512 16.2738 59.5796 15.5109L58.8585 14.8944ZM62.8001 16.7545C64.1702 16.7545 65.324 15.7408 65.324 14.1942C65.324 12.6476 64.1702 11.6653 62.8001 11.6653C61.43 11.6653 60.2865 12.6476 60.2865 14.1942C60.2865 15.7408 61.43 16.7545 62.8001 16.7545ZM62.8001 15.8349C61.9244 15.8349 61.2136 15.1974 61.2136 14.1942C61.2136 13.2119 61.9244 12.5954 62.8001 12.5954C63.6551 12.5954 64.3865 13.2119 64.3865 14.1942C64.3865 15.1974 63.6551 15.8349 62.8001 15.8349ZM72.1034 12.5954C72.804 12.5954 73.2057 13.0865 73.2057 13.8912V16.65H74.1432V13.8285C74.1432 12.4491 73.4942 11.6653 72.2889 11.6653C71.8253 11.6653 71.063 11.8012 70.62 12.6685C70.3934 12.1356 69.971 11.8116 69.3632 11.7176C69.1984 11.6862 69.0233 11.6758 68.8378 11.6862C68.4464 11.7176 67.7562 11.9579 67.5089 12.5013V11.7698H66.5715V16.65H67.5089V14.0166C67.5089 12.9925 68.1785 12.5954 68.8481 12.5954C69.4765 12.5954 69.8886 13.0761 69.8886 13.8807V16.65H70.8261V14.0166C70.8261 13.2015 71.3102 12.5954 72.1034 12.5954ZM76.5728 11.7698H75.6457V16.65H76.5728V11.7698ZM75.4603 9.97245C75.4603 10.3382 75.7487 10.589 76.1093 10.589C76.4698 10.589 76.7583 10.3382 76.7583 9.97245C76.7583 9.6067 76.4698 9.3559 76.1093 9.3559C75.7487 9.3559 75.4603 9.6067 75.4603 9.97245ZM79.0781 14.0166C79.0781 12.982 79.758 12.5954 80.4379 12.5954C81.0972 12.5954 81.499 13.0656 81.499 13.8912V16.65H82.4364V13.8285C82.4364 12.4491 81.7874 11.6653 80.5821 11.6653C80.0567 11.6653 79.3562 11.9161 79.0781 12.5013V11.7698H78.1406V16.65H79.0781V14.0166ZM84.6664 17.3501C84.5428 17.4024 83.9968 17.7054 83.8835 17.7681C84.3471 18.6355 85.1609 19.0848 86.0571 19.0848C87.6539 19.0848 88.684 18.207 88.684 15.908V11.7698H87.7569V12.5327C87.4272 11.9788 86.737 11.6653 86.0674 11.6653C84.7488 11.6653 83.626 12.679 83.626 14.2256C83.626 15.7722 84.7488 16.7545 86.0674 16.7545C86.7473 16.7545 87.4582 16.441 87.7569 15.8558C87.7569 15.8976 87.7672 15.9289 87.7672 15.9707C87.7672 17.5905 87.0976 18.1861 86.0571 18.1861C85.5215 18.1861 84.9549 17.8935 84.6664 17.3501ZM87.7466 14.2151C87.7466 15.2601 86.9328 15.8244 86.1499 15.8244C85.2845 15.8244 84.584 15.2183 84.584 14.2151C84.584 13.2642 85.2845 12.5954 86.1499 12.5954C87.0049 12.5954 87.7466 13.1701 87.7466 14.2151ZM92.6718 14.5704C92.6718 15.699 93.712 16.7545 95.1542 16.7545C96.5552 16.7545 97.3896 15.9185 97.5236 14.8735C97.6781 13.7135 96.957 12.9611 95.6281 12.6163L94.7009 12.3864C93.8047 12.1669 93.6914 11.6967 93.6914 11.3832C93.6914 10.7248 94.3198 10.2964 95.0203 10.2964C95.8032 10.2964 96.3595 10.7562 96.3595 11.4772H97.3175C97.3175 10.1814 96.3183 9.36635 95.0306 9.36635C93.8253 9.36635 92.7336 10.1814 92.7336 11.3936C92.7336 12.0206 92.9499 12.888 94.464 13.2746L95.3808 13.5045C96.0195 13.6508 96.6376 14.0166 96.5861 14.7899C96.5037 15.3333 96.0607 15.8453 95.1542 15.8453C94.2579 15.8453 93.6298 15.1974 93.6298 14.5704H92.6718ZM101.019 16.7545C102.389 16.7545 103.542 15.7408 103.542 14.1942C103.542 12.6476 102.389 11.6653 101.019 11.6653C99.6485 11.6653 98.505 12.6476 98.505 14.1942C98.505 15.7408 99.6485 16.7545 101.019 16.7545ZM101.019 15.8349C100.143 15.8349 99.4322 15.1974 99.4322 14.1942C99.4322 13.2119 100.143 12.5954 101.019 12.5954C101.874 12.5954 102.605 13.2119 102.605 14.1942C102.605 15.1974 101.874 15.8349 101.019 15.8349ZM106.984 16.7545C108.354 16.7545 109.508 15.7408 109.508 14.1942C109.508 12.6476 108.354 11.6653 106.984 11.6653C105.614 11.6653 104.471 12.6476 104.471 14.1942C104.471 15.7408 105.614 16.7545 106.984 16.7545ZM106.984 15.8349C106.109 15.8349 105.398 15.1974 105.398 14.1942C105.398 13.2119 106.109 12.5954 106.984 12.5954C107.839 12.5954 108.571 13.2119 108.571 14.1942C108.571 15.1974 107.839 15.8349 106.984 15.8349ZM111.693 14.0166C111.693 12.982 112.373 12.5954 113.053 12.5954C113.712 12.5954 114.114 13.0656 114.114 13.8912V16.65H115.051V13.8285C115.051 12.4491 114.402 11.6653 113.197 11.6653C112.672 11.6653 111.971 11.9161 111.693 12.5013V11.7698H110.755V16.65H111.693V14.0166Z" fill="#64748B"/>
<path d="M197.159 7.46666C197.159 3.61908 200.134 0.5 203.804 0.5H358.643C362.313 0.5 365.288 3.61909 365.288 7.46666V45.7834C365.288 49.631 362.313 52.75 358.643 52.75H203.804C200.134 52.75 197.159 49.631 197.159 45.7834V7.46666Z" fill="white"/>
<path fill-rule="evenodd" clip-rule="evenodd" d="M197.159 45.7834V7.46666C197.159 3.61909 200.134 0.5 203.804 0.5H358.643C362.313 0.5 365.288 3.61908 365.288 7.46666V45.7834C365.288 49.631 362.313 52.75 358.643 52.75H203.804C200.134 52.75 197.159 49.631 197.159 45.7834ZM198.156 45.7834V7.46666C198.156 4.19622 200.684 1.545 203.804 1.545H358.643C361.762 1.545 364.292 4.19622 364.292 7.46666V45.7834C364.292 49.0537 361.762 51.705 358.643 51.705H203.804C200.684 51.705 198.156 49.0537 198.156 45.7834Z" fill="black" fill-opacity="0.101961"/>
<path d="M235.151 27.6893C235.134 24.627 236.457 22.319 239.13 20.6172C237.635 18.3721 235.373 17.1373 232.392 16.8993C229.57 16.6658 226.481 18.6235 225.351 18.6235C224.156 18.6235 221.423 16.9801 219.273 16.9801C214.836 17.0519 210.12 20.689 210.12 28.089C210.12 30.2757 210.501 32.5343 211.263 34.8603C212.283 37.9226 215.958 45.4258 219.791 45.3045C221.796 45.2552 223.213 43.8137 225.822 43.8137C228.353 43.8137 229.664 45.3045 231.9 45.3045C235.767 45.2461 239.091 38.4255 240.059 35.3542C234.872 32.7902 235.151 27.8465 235.151 27.6893V27.6893ZM230.649 13.9941C232.821 11.291 232.624 8.83034 232.559 7.94577C230.64 8.06252 228.422 9.31529 227.158 10.8555C225.766 12.5078 224.948 14.5509 225.124 16.8543C227.197 17.0205 229.09 15.9024 230.649 13.9941V13.9941Z" fill="black"/>
<path d="M258.548 38.311H256.348L255.143 34.3229H250.954L249.806 38.311H247.664L251.814 24.7339H254.377L258.548 38.311ZM254.779 32.6497L253.69 29.1044C253.574 28.7423 253.358 27.8894 253.04 26.5467H253.001C252.874 27.1242 252.669 27.9772 252.389 29.1044L251.318 32.6497H254.779Z" fill="black"/>
<path d="M269.219 33.2956C269.219 34.9606 268.792 36.2766 267.938 37.2428C267.173 38.1029 266.222 38.5324 265.088 38.5324C263.864 38.5324 262.984 38.0692 262.448 37.1428H262.41V42.3H260.344V31.7438C260.344 30.6971 260.318 29.6228 260.268 28.5209H262.084L262.199 30.0728H262.238C262.927 28.9036 263.972 28.32 265.375 28.32C266.471 28.32 267.387 28.776 268.119 29.6891C268.853 30.6032 269.219 31.8051 269.219 33.2956ZM267.115 33.3751C267.115 32.4223 266.912 31.6367 266.503 31.0185C266.057 30.3737 265.457 30.0513 264.705 30.0513C264.196 30.0513 263.733 30.2308 263.319 30.5849C262.905 30.9419 262.633 31.4082 262.506 31.9857C262.442 32.255 262.411 32.4753 262.411 32.6488V34.2812C262.411 34.9933 262.618 35.5942 263.032 36.0848C263.447 36.5756 263.986 36.8204 264.648 36.8204C265.426 36.8204 266.031 36.5042 266.465 35.8736C266.898 35.2422 267.115 34.4097 267.115 33.3751Z" fill="black"/>
<path d="M279.911 33.2956C279.911 34.9606 279.484 36.2766 278.629 37.2428C277.865 38.1029 276.914 38.5324 275.78 38.5324C274.556 38.5324 273.676 38.0692 273.141 37.1428H273.102V42.3H271.037V31.7438C271.037 30.6971 271.011 29.6228 270.961 28.5209H272.777L272.892 30.0728H272.931C273.619 28.9036 274.664 28.32 276.068 28.32C277.163 28.32 278.079 28.776 278.813 29.6891C279.544 30.6032 279.911 31.8051 279.911 33.2956ZM277.807 33.3751C277.807 32.4223 277.603 31.6367 277.194 31.0185C276.748 30.3737 276.15 30.0513 275.397 30.0513C274.887 30.0513 274.425 30.2308 274.01 30.5849C273.596 30.9419 273.325 31.4082 273.198 31.9857C273.135 32.255 273.102 32.4753 273.102 32.6488V34.2812C273.102 34.9933 273.31 35.5942 273.722 36.0848C274.137 36.5746 274.676 36.8204 275.34 36.8204C276.118 36.8204 276.723 36.5042 277.156 35.8736C277.59 35.2422 277.807 34.4097 277.807 33.3751Z" fill="black"/>
<path d="M291.865 34.5036C291.865 35.6586 291.485 36.5981 290.72 37.3235C289.88 38.1162 288.711 38.5121 287.209 38.5121C285.822 38.5121 284.709 38.2305 283.868 37.6663L284.346 35.8534C285.253 36.4308 286.248 36.7206 287.332 36.7206C288.11 36.7206 288.715 36.5349 289.15 36.1656C289.583 35.7962 289.799 35.3004 289.799 34.6821C289.799 34.1312 289.621 33.6671 289.263 33.2906C288.908 32.9141 288.314 32.5642 287.485 32.2407C285.228 31.3542 284.1 30.0555 284.1 28.3476C284.1 27.2315 284.495 26.3163 285.287 25.6042C286.075 24.8911 287.127 24.535 288.443 24.535C289.616 24.535 290.59 24.7503 291.369 25.1799L290.852 26.9529C290.125 26.5368 289.304 26.3286 288.385 26.3286C287.658 26.3286 287.09 26.5174 286.684 26.8928C286.34 27.2284 286.167 27.6375 286.167 28.1221C286.167 28.6588 286.364 29.1026 286.759 29.4515C287.103 29.7739 287.728 30.1228 288.635 30.4993C289.744 30.9695 290.558 31.5195 291.082 32.15C291.605 32.7784 291.865 33.565 291.865 34.5036Z" fill="black"/>
<path d="M298.693 30.1535H296.417V34.9067C296.417 36.1157 296.818 36.7196 297.622 36.7196C297.991 36.7196 298.297 36.686 298.54 36.6186L298.597 38.2704C298.189 38.4306 297.654 38.5111 296.991 38.5111C296.175 38.5111 295.537 38.2489 295.077 37.7256C294.619 37.2012 294.388 36.3217 294.388 35.0863V30.1515H293.032V28.5191H294.388V26.7266L296.417 26.0818V28.5191H298.693V30.1535Z" fill="black"/>
<path d="M308.965 33.3354C308.965 34.8402 308.555 36.0757 307.74 37.0419C306.885 38.0366 305.749 38.5324 304.334 38.5324C302.97 38.5324 301.884 38.056 301.075 37.103C300.264 36.1502 299.86 34.9473 299.86 33.4976C299.86 31.9805 300.276 30.7379 301.112 29.7718C301.946 28.8046 303.072 28.321 304.487 28.321C305.851 28.321 306.948 28.7975 307.776 29.7514C308.569 30.6767 308.965 31.8714 308.965 33.3354ZM306.822 33.4058C306.822 32.5028 306.638 31.7285 306.267 31.0827C305.835 30.3012 305.216 29.9115 304.413 29.9115C303.583 29.9115 302.952 30.3023 302.52 31.0827C302.149 31.7296 301.965 32.5161 301.965 33.4466C301.965 34.3495 302.149 35.1238 302.52 35.7686C302.966 36.5501 303.59 36.9398 304.394 36.9398C305.183 36.9398 305.802 36.542 306.249 35.7482C306.63 35.0902 306.822 34.3077 306.822 33.4058Z" fill="black"/>
<path d="M315.677 30.4339C315.472 30.394 315.255 30.3737 315.026 30.3737C314.3 30.3737 313.738 30.6624 313.343 31.2409C312.998 31.751 312.826 32.3958 312.826 33.1742V38.311H310.762L310.781 31.6041C310.781 30.4757 310.755 29.4483 310.704 28.522H312.503L312.579 30.3951H312.636C312.853 29.7514 313.198 29.2331 313.668 28.8444C314.128 28.4944 314.625 28.32 315.16 28.32C315.352 28.32 315.524 28.3343 315.677 28.3598V30.4339Z" fill="black"/>
<path d="M324.913 32.9528C324.913 33.3425 324.889 33.671 324.837 33.9394H318.641C318.666 34.9065 318.966 35.6462 319.541 36.1563C320.063 36.6123 320.738 36.8409 321.567 36.8409C322.484 36.8409 323.321 36.6868 324.074 36.3777L324.397 37.8876C323.518 38.2916 322.479 38.4927 321.281 38.4927C319.84 38.4927 318.709 38.0458 317.885 37.1531C317.063 36.2604 316.652 35.0616 316.652 33.5578C316.652 32.0816 317.034 30.8522 317.801 29.8718C318.603 28.825 319.687 28.3016 321.051 28.3016C322.39 28.3016 323.405 28.825 324.094 29.8718C324.639 30.7032 324.913 31.7316 324.913 32.9528ZM322.944 32.3886C322.957 31.7439 322.822 31.1868 322.543 30.7165C322.185 30.1115 321.636 29.8096 320.897 29.8096C320.221 29.8096 319.673 30.1044 319.253 30.6961C318.909 31.1665 318.704 31.7306 318.641 32.3876H322.944V32.3886Z" fill="black"/>
<path d="M254.146 14.8944C253.662 15.4691 252.971 15.814 252.178 15.814C250.685 15.814 249.541 14.6018 249.541 13.0656C249.541 11.5295 250.685 10.3068 252.178 10.3068C252.961 10.3068 253.641 10.6621 254.125 11.1951L254.846 10.589C254.218 9.8366 253.281 9.36635 252.178 9.36635C250.169 9.36635 248.583 11.0279 248.583 13.0656C248.583 15.1138 250.169 16.7545 252.178 16.7545C253.291 16.7545 254.239 16.2738 254.867 15.5109L254.146 14.8944ZM258.087 16.7545C259.458 16.7545 260.611 15.7408 260.611 14.1942C260.611 12.6476 259.458 11.6653 258.087 11.6653C256.717 11.6653 255.574 12.6476 255.574 14.1942C255.574 15.7408 256.717 16.7545 258.087 16.7545ZM258.087 15.8349C257.212 15.8349 256.501 15.1974 256.501 14.1942C256.501 13.2119 257.212 12.5954 258.087 12.5954C258.942 12.5954 259.674 13.2119 259.674 14.1942C259.674 15.1974 258.942 15.8349 258.087 15.8349ZM267.391 12.5954C268.091 12.5954 268.493 13.0865 268.493 13.8912V16.65H269.431V13.8285C269.431 12.4491 268.782 11.6653 267.576 11.6653C267.113 11.6653 266.35 11.8012 265.907 12.6685C265.681 12.1356 265.258 11.8116 264.651 11.7176C264.486 11.6862 264.311 11.6758 264.125 11.6862C263.734 11.7176 263.044 11.9579 262.796 12.5013V11.7698H261.859V16.65H262.796V14.0166C262.796 12.9925 263.466 12.5954 264.136 12.5954C264.764 12.5954 265.176 13.0761 265.176 13.8807V16.65H266.113V14.0166C266.113 13.2015 266.598 12.5954 267.391 12.5954ZM271.86 11.7698H270.933V16.65H271.86V11.7698ZM270.748 9.97245C270.748 10.3382 271.036 10.589 271.397 10.589C271.757 10.589 272.046 10.3382 272.046 9.97245C272.046 9.6067 271.757 9.3559 271.397 9.3559C271.036 9.3559 270.748 9.6067 270.748 9.97245ZM274.365 14.0166C274.365 12.982 275.045 12.5954 275.725 12.5954C276.385 12.5954 276.786 13.0656 276.786 13.8912V16.65H277.724V13.8285C277.724 12.4491 277.075 11.6653 275.869 11.6653C275.344 11.6653 274.644 11.9161 274.365 12.5013V11.7698H273.428V16.65H274.365V14.0166ZM279.954 17.3501C279.83 17.4024 279.284 17.7054 279.171 17.7681C279.634 18.6355 280.448 19.0848 281.344 19.0848C282.941 19.0848 283.971 18.207 283.971 15.908V11.7698H283.044V12.5327C282.715 11.9788 282.024 11.6653 281.355 11.6653C280.036 11.6653 278.913 12.679 278.913 14.2256C278.913 15.7722 280.036 16.7545 281.355 16.7545C282.035 16.7545 282.746 16.441 283.044 15.8558C283.044 15.8976 283.055 15.9289 283.055 15.9707C283.055 17.5905 282.385 18.1861 281.344 18.1861C280.809 18.1861 280.242 17.8935 279.954 17.3501ZM283.034 14.2151C283.034 15.2601 282.22 15.8244 281.437 15.8244C280.572 15.8244 279.871 15.2183 279.871 14.2151C279.871 13.2642 280.572 12.5954 281.437 12.5954C282.292 12.5954 283.034 13.1701 283.034 14.2151ZM287.959 14.5704C287.959 15.699 289 16.7545 290.442 16.7545C291.843 16.7545 292.677 15.9185 292.811 14.8735C292.965 13.7135 292.244 12.9611 290.915 12.6163L289.989 12.3864C289.092 12.1669 288.979 11.6967 288.979 11.3832C288.979 10.7248 289.607 10.2964 290.308 10.2964C291.091 10.2964 291.647 10.7562 291.647 11.4772H292.605C292.605 10.1814 291.606 9.36635 290.318 9.36635C289.113 9.36635 288.021 10.1814 288.021 11.3936C288.021 12.0206 288.237 12.888 289.752 13.2746L290.668 13.5045C291.307 13.6508 291.925 14.0166 291.873 14.7899C291.791 15.3333 291.348 15.8453 290.442 15.8453C289.546 15.8453 288.917 15.1974 288.917 14.5704H287.959ZM296.306 16.7545C297.676 16.7545 298.83 15.7408 298.83 14.1942C298.83 12.6476 297.676 11.6653 296.306 11.6653C294.936 11.6653 293.792 12.6476 293.792 14.1942C293.792 15.7408 294.936 16.7545 296.306 16.7545ZM296.306 15.8349C295.43 15.8349 294.72 15.1974 294.72 14.1942C294.72 13.2119 295.43 12.5954 296.306 12.5954C297.161 12.5954 297.892 13.2119 297.892 14.1942C297.892 15.1974 297.161 15.8349 296.306 15.8349ZM302.272 16.7545C303.642 16.7545 304.795 15.7408 304.795 14.1942C304.795 12.6476 303.642 11.6653 302.272 11.6653C300.901 11.6653 299.758 12.6476 299.758 14.1942C299.758 15.7408 300.901 16.7545 302.272 16.7545ZM302.272 15.8349C301.396 15.8349 300.685 15.1974 300.685 14.1942C300.685 13.2119 301.396 12.5954 302.272 12.5954C303.127 12.5954 303.858 13.2119 303.858 14.1942C303.858 15.1974 303.127 15.8349 302.272 15.8349ZM306.98 14.0166C306.98 12.982 307.66 12.5954 308.34 12.5954C308.999 12.5954 309.401 13.0656 309.401 13.8912V16.65H310.339V13.8285C310.339 12.4491 309.69 11.6653 308.484 11.6653C307.959 11.6653 307.258 11.9161 306.98 12.5013V11.7698H306.043V16.65H306.98V14.0166Z" fill="#64748B"/>
</svg>
