<svg width="9" height="15" viewBox="0 0 9 15" fill="none" xmlns="http://www.w3.org/2000/svg">
<path d="M1.13452 0.754318C1.29718 0.591515 1.51773 0.500061 1.7478 0.500061C1.97787 0.500061 2.19857 0.591515 2.36108 0.754318L8.25363 6.64222C8.41644 6.80488 8.5079 7.02543 8.5079 7.25552C8.5079 7.4856 8.41644 7.70615 8.25363 7.8688L2.36108 13.7567C2.19995 13.926 1.97729 14.023 1.74359 14.0259C1.50973 14.0286 1.28482 13.9369 1.11972 13.7715C0.954678 13.606 0.863216 13.3809 0.866543 13.1472C0.869717 12.9135 0.967068 12.691 1.13665 12.5302L6.41586 7.25562L1.13665 1.98107C0.97372 1.81873 0.881802 1.59833 0.881344 1.36826C0.881039 1.13818 0.972042 0.917351 1.13455 0.754539L1.13452 0.754318Z" fill="white"/>
</svg>
